<svg xmlns="http://www.w3.org/2000/svg" width="260" height="59.03" viewBox="0 0 260 59.03">
  <defs>
    <style>
      .cls-1 {
        fill-rule: evenodd;
      }
    </style>
  </defs>
  <path id="footer_cygames.svg" class="cls-1" d="M331.578,4228.75l6.752-13.36-11.449-22.65h7.656l7.612,15.09,7.63-15.09h7.227L338.8,4228.75h-7.222Zm110.787-11.08v-16.65a3.015,3.015,0,0,0-6.029,0v16.65h-6.693v-16.65a3.008,3.008,0,0,0-6.015,0v16.65h-6.695v-24.98l3.632,1.28a9.592,9.592,0,0,1,6.08-2.19,10,10,0,0,1,6.353,2.23,10.017,10.017,0,0,1,6.355-2.23,9.7,9.7,0,0,1,9.7,9.67v16.22h-6.693Zm-43.125,1.04a13.465,13.465,0,1,1,7.993-24.3l5.52-1.7v24.96h-5.944v-1.28A13.4,13.4,0,0,1,399.24,4218.71Zm0.418-20.76a7.3,7.3,0,0,0-7.117,7.3,7.119,7.119,0,0,0,14.238,0A7.307,7.307,0,0,0,399.658,4197.95Zm65.908,20.76a13.465,13.465,0,1,1,13.528-13.46,14.806,14.806,0,0,1-.194,2.14H459.07a7.109,7.109,0,0,0,6.809,5.11,7.189,7.189,0,0,0,5.516-2.66h6.9A13.515,13.515,0,0,1,465.566,4218.71Zm6.9-16.2a7.069,7.069,0,0,0-13.172,0H472.47Zm-163.483,16.22a17.265,17.265,0,1,1,15.9-24.11h-7.861a9.266,9.266,0,0,0-7.614-3.77,10.6,10.6,0,1,0,0,21.2,9.372,9.372,0,0,0,8.335-4.82h7.561A17.441,17.441,0,0,1,308.987,4218.73Zm183.89,0c-7.061,0-11.95-3.27-12.341-8.97h6.874c0.178,2.25,2.425,3.42,5.685,3.42,3.019,0,4.874-1.17,4.874-2.26,0-1.3-1.968-2.29-5.4-2.72-7.345-.92-11.07-3.69-11.07-8.24a7.2,7.2,0,0,1,4.051-6.62,15.626,15.626,0,0,1,7.038-1.62c6.571,0,10.516,2.7,11.662,8.16h-7.036c-0.4-1.44-2.073-2.61-4.838-2.61-3.077,0-4.169,1.22-4.169,2.26,0,1.39,1.677,2.31,4.985,2.72,7.623,0.98,11.487,3.76,11.487,8.24,0,2.89-1.527,5.18-4.417,6.63A17.8,17.8,0,0,1,492.877,4218.73Zm-123.469,10.33a13.568,13.568,0,0,1-12.912-9.47h7.4a6.878,6.878,0,0,0,5.516,2.81,6.748,6.748,0,0,0,6.643-5.44,13.468,13.468,0,1,1,1.345-22.55l5.527-1.7v22.89A13.5,13.5,0,0,1,369.408,4229.06Zm0.12-30.92a7.2,7.2,0,0,0-7.118,7.1,7.118,7.118,0,0,0,14.236,0A7.29,7.29,0,0,0,369.528,4198.14Zm-101.881-15.17c2.99-.11,8.95,1.54,13.571-0.67,5.63-2.7,6.986-6.44,8.549-9.34a0.529,0.529,0,0,0-.855-0.62c-2.16,3.22-6.89,8.2-17.539,5.02-9.647-2.87-14.085,4.38-14.748,5.79,0,0,0-2.91-.009-3.04a0.225,0.225,0,0,0-.2-0.23,0.376,0.376,0,0,0-.235.2c-1.01,4.53-2.54,7.38-4.21,8.78v1.09a12.226,12.226,0,0,1-6.057,2.58c-2.553.38-.366,4.15-0.366,4.15a3.035,3.035,0,0,1,1.392-1.25l1.265,2.08,0.147-2.56c0.308-.06.625-0.11,0.946-0.15l0.735,1.81,0.506-1.9c0.676-.02,1.326,0,1.884.04a1.05,1.05,0,0,1,.79,1.64c-0.6.88-1.287,1.86-1.357,1.94-0.01-.01-1-1.13-1-1.13l0.314,2.04h0a1.776,1.776,0,0,0-.194,1.98l1.718-.63a0.44,0.44,0,0,1-.2-0.42c0-.53.72-1.15,1.814-2.04,4.155-3.38,8.329,1.95,3.267,6.57-3.793,3.46-4.807,6-4.807,7.04v0.01a0.916,0.916,0,0,0-.509.81h0a0.921,0.921,0,0,0,.875.92,4.674,4.674,0,0,1-.195,5.97,2.249,2.249,0,0,0-1.6.79l-0.068.08a2.25,2.25,0,0,0,.075,2.98c0.022,0.02.05,0.04,0.074,0.06h-0.677l-2.023,3.91,2.023,3.91h27.32l2.024-3.91-2.024-3.91h-0.752a1.473,1.473,0,0,0,.157-0.15l0.068-.08a2.249,2.249,0,0,0-1.658-3.69,4.672,4.672,0,0,1-.192-5.96,0.93,0.93,0,0,0,.864-0.92h0a0.9,0.9,0,0,0-.5-0.8v-0.02a8,8,0,0,0,.087-5.53c-0.4-1.07.483-1.36,1.3-1.17a11.873,11.873,0,0,1,4.592,2.53c3.155,2.48,2.819,3.58,3.5,3.28,0.7-.3.167-2.41-2.332-5.58a21.85,21.85,0,0,0-7.873-6.06c-1.262-.77-1.08-1.49-0.161-1.64a10.217,10.217,0,0,1,6.264,1.6c0.685,0.38,1.407,1.02,1.676.64,0.22-.31-0.007-0.95-1.151-1.84-4.818-3.94-10.161-4.39-10.9-5.6-0.37-.81-0.172-1.59,2.3-2.26a10.766,10.766,0,0,1,4.362-.1c0.562,0.11.654-.56-0.256-0.98-5.435-2.35-8.833-.48-10.983-1.77A2.289,2.289,0,0,1,267.647,4182.97Z" transform="translate(-244.688 -4172.16)"/>
</svg>
